# xmcd CD database file
#
# Track frame offsets:
#	150
#	13680
#	42721
#	65120
#	88341
#	103899
#	125800
#	137950
#	153242
#	186634
#	208270
#	222824
#
# Disc length: 3176 seconds
#
# Revision: 0
# Processed by: cddbd v1.5.2PL0 Copyright (c) Steve Scherf et al.
# Submitted via: CDex 1.51
#
DISCID=c90c660c
DTITLE=B. B. King - B. B. King en vivo
DYEAR=2007
DGENRE=Blues
TTITLE0=Please love me
TTITLE1=Worry, worry
TTITLE2=The thrill is gone
TTITLE3=Guess who
TTITLE4=Caledonia
TTITLE5=Everyday I have the blues
TTITLE6=Help the poor
TTITLE7=How blue can you get
TTITLE8=Ain't nobody home
TTITLE9=Nobody loves me but my mother
TTITLE10=King's shuffle
TTITLE11=Long night
EXTD=YEAR: 2007
EXTT0=
EXTT1=
EXTT2=
EXTT3=
EXTT4=
EXTT5=
EXTT6=
EXTT7=
EXTT8=
EXTT9=
EXTT10=
EXTT11=
PLAYORDER=
